<?xml version="1.0" encoding="utf-8"?>
<!-- Generator: Adobe Illustrator 15.0.2, SVG Export Plug-In  -->
<!DOCTYPE svg PUBLIC "-//W3C//DTD SVG 1.1//EN" "http://www.w3.org/Graphics/SVG/1.1/DTD/svg11.dtd" [
	<!ENTITY ns_flows "http://ns.adobe.com/Flows/1.0/">
]>
<svg version="1.1"
	 xmlns="http://www.w3.org/2000/svg" xmlns:xlink="http://www.w3.org/1999/xlink" xmlns:a="http://ns.adobe.com/AdobeSVGViewerExtensions/3.0/"
	 x="0px" y="0px" width="600px" height="600px" viewBox="-27 -27 600 600"
	 overflow="visible" enable-background="new -27 -27 600 600" xml:space="preserve">
<defs>
</defs>
<path fill="#B3B3B3" d="M241.394,236.1c0,3.063,1.056,5.68,3.168,7.852c2.112,2.174,4.696,3.26,7.759,3.26
	c1.712,0,3.686-0.459,5.923-1.377c2.234-0.918,5.155-2.539,8.769-4.867l0.091-20.843c-1.346,0.429-3.337,1.042-5.968,1.837
	C247.973,225.877,241.394,230.592,241.394,236.1z"/>
<path fill="#B3B3B3" d="M525.166,264.198c-7.744,1.653-15.809,2.755-24.196,3.306c-0.428-1.898-0.765-3.994-1.009-6.289
	c-0.244-2.297-0.43-4.881-0.552-7.76c-5.326,4.348-10.346,7.562-15.059,9.642c-4.713,2.079-9.396,3.122-14.048,3.122
	c-11.692,0-21.519-4.422-29.476-13.269c-7.958-8.845-11.938-19.911-11.938-33.194c0-14.631,4.958-26.719,14.874-36.269
	c9.918-9.55,22.468-14.325,37.648-14.325c3.122,0,6.184,0.245,9.183,0.735c2.998,0.491,5.938,1.254,8.814,2.295
	c0.062-2.814,0.107-5.494,0.138-8.035c0.03-2.539,0.046-4.943,0.046-7.208c0-8.264-0.733-13.466-2.203-15.61
	c-1.47-2.142-4.348-3.213-8.631-3.213c-1.163,0-2.181,0.015-2.793,0.045c-0.612,0.032-0.966,0.078-1.966,0.137v-10.284
	c8-0.611,16.244-1.545,24.232-2.8c7.988-1.254,16.026-2.832,23.984-4.729c-0.488,16.896-0.669,33.836-0.976,50.824
	c-0.306,16.987-0.241,34.266-0.241,51.833v9.733c0,7.223,0.382,11.891,1.514,14.003s3.104,3.169,6.105,3.169
	c0.856,0,1.85-0.169,3.074-0.506c1.227-0.336,2.549-0.812,4.019-1.424l0.288,1.396V0H0v132.219
	c6.586,0.276,12.271,0.486,17.029,0.628c5.11,0.153,9.596,0.229,13.453,0.229c5.999,0,13.925-0.26,23.782-0.78
	c9.855-0.52,16.711-0.781,20.568-0.781c14.997,0,26.825,2.77,35.489,8.31c8.662,5.542,12.993,12.933,12.993,22.175
	c0,7.04-2.54,13.223-7.621,18.548c-5.083,5.326-12.548,9.55-22.405,12.672c12.61,1.53,22.083,5.036,28.419,10.514
	c6.336,5.479,9.503,12.962,9.503,22.45c0,11.264-5.632,20.278-16.895,27.042c-11.264,6.765-26.569,10.146-45.911,10.146
	c-3.184,0-9.474-0.275-18.87-0.827c-9.398-0.551-17.187-0.826-23.368-0.826c-1.593,0-5.647,0.138-12.167,0.414
	c-5.512,0.233-10.172,0.432-14,0.599V547h546V258.224C539.221,260.673,532.282,262.679,525.166,264.198z M433.024,262.914
	c-6.306-0.367-11.951-0.689-16.941-0.873c-4.991-0.184-9.169-0.299-12.533-0.299c-2.754,0-6.297,0.08-10.797,0.264
	c-4.498,0.184-9.753,0.447-15.753,0.814V253h0.748c4.281,0,6.9-1.334,8.338-3.812c1.438-2.479,1.914-9.842,1.914-21.902v-10.008
	c0-11.324-0.873-18.854-3.107-22.588c-2.236-3.733-5.953-5.602-11.399-5.602c-2.021,0-4.271,0.399-6.872,1.193
	c-2.604,0.796-5.707,2.082-9.381,3.857c-0.309,3.673-0.258,7.82-0.35,12.442c-0.092,4.623,0.109,12.136,0.109,22.543v8.355
	c0,6.672,0.693,10.896,2.193,12.671c1.502,1.776,3.807,2.663,8.807,2.663v10.008c-5-0.367-9.989-0.643-14.729-0.826
	c-4.745-0.184-9.653-0.275-14.552-0.275c-4.467,0-9.308,0.092-13.99,0.275S315,262.453,310,262.82v-5.808
	c-4,2.664-8.992,4.747-12.633,6.222c-5.508,2.234-9.957,3.352-13.569,3.352c-5.327,0-9.297-1.18-12.021-3.535
	c-2.723-2.355-4.149-5.861-4.333-10.514c-7.286,5.082-13.27,8.692-17.983,10.835c-4.714,2.144-8.961,3.214-12.756,3.214
	c-7.224,0-13.389-2.725-18.499-8.172c-5.112-5.449-7.667-11.998-7.667-19.65c0-12.305,14.234-21.639,42.699-28.006
	c5.937-1.346,10.59-2.418,13.958-3.214c0.06-1.837,0.137-3.811,0.229-5.923c0.092-2.111,0.138-3.352,0.138-3.719
	c0-4.53-1.041-7.881-3.122-10.055c-2.082-2.171-5.327-3.259-9.733-3.259c-4.408,0-8.121,0.796-10.659,2.388
	c-2.541,1.592-4.049,3.734-4.049,6.428v1.928c0,2.694-1.047,4.715-3.619,6.061c-2.571,1.346-6.371,2.02-11.635,2.02
	c-3.488,0-6.061-0.656-7.837-1.975c-1.776-1.315-2.632-3.29-2.632-5.923c0-0.345,0.047-0.697,0.095-1.052
	c-0.375,0.662-0.786,1.292-1.265,1.879c-2.204,2.693-4.988,4.039-8.353,4.039c-1.897,0-4.359-0.932-7.389-2.8
	c-3.03-1.867-5.404-2.8-7.116-2.8c-1.776,0-3.795,0.704-6.06,2.111c-2.264,1.41-4.743,3.522-7.437,6.337
	c-0.062,2.511,0.108,5.111,0.078,7.805c-0.032,2.695,0.17,6.213,0.17,10.56v10.743c0,8.998,0.809,14.661,2.86,16.986
	c2.051,2.328,5.999,3.49,12.059,3.49c1.102,0,1.779-0.015,2.454-0.046c0.673-0.031,1.627-0.046,1.627-0.046v10.1
	c-7-0.489-14.46-0.856-20.551-1.102c-6.091-0.244-11.538-0.367-16.496-0.367c-2.878,0-7.034,0.123-12.359,0.367
	c-5.325,0.245-10.594,0.612-17.594,1.102v-10.376c0,0,0.889,0.032,1.563,0.093c0.673,0.061,1.149,0.092,1.333,0.092
	c8.263,0,12.419-9.427,12.419-28.281c0-3.123,0.235-5.54,0.297-7.255L145,206.809v-6.978c0-5.815-0.914-9.596-2.35-11.341
	c-1.439-1.744-4.152-2.616-7.948-2.616c-0.735,0-1.595,0.015-2.481,0.045c-0.889,0.032-1.848,0.078-2.826,0.138l-0.563-9.733
	c7.836-0.857,15.802-2.066,23.914-3.627c8.111-1.561,16.356-3.474,24.744-5.739c-0.367,4.286-0.69,8.555-0.966,12.809
	c-0.275,4.257-0.505,8.555-0.689,12.901c5.449-9.366,9.993-15.686,13.636-18.961c3.64-3.274,7.605-4.912,11.891-4.912
	c4.223,0,7.788,1.653,10.697,4.959c2.907,3.305,4.361,7.345,4.361,12.12c0,1.501-0.144,2.899-0.414,4.205
	c0.225-0.387,0.464-0.777,0.734-1.175c1.621-2.388,3.963-4.835,7.024-7.346c5.449-4.408,11.846-7.911,19.191-10.514
	c7.346-2.602,14.539-3.902,21.578-3.902c11.997,0,20.981,2.755,26.95,8.265c5.97,5.509,8.953,13.834,8.953,24.974
	c0,2.572-0.245,7.93-0.734,16.069c-0.49,8.142-0.735,14.999-0.735,20.569c0,3.121,0.536,5.479,1.607,7.069
	c1.069,1.593,2.647,2.388,4.729,2.388c0.919,0,2.021-0.244,3.306-0.734c1.287-0.49,3.09-1.316,5.417-2.479l3.895,7.947
	c4.41-3.114,6.664-10.778,6.757-23.005c0-0.919,0.055-1.592,0.115-2.021L325,212.961v-11.294c0-5.814-0.775-9.764-2.275-11.844
	s-4.223-3.122-8.138-3.122c-0.979,0-2.003,0.015-2.615,0.045c-0.612,0.032-0.972,0.046-1.972,0.046v-9.917
	c8-0.856,15.143-2.097,22.764-3.718c7.621-1.621,15.704-3.628,24.029-6.015l-1.872,15.793c6.795-5.143,13.065-8.937,18.759-11.386
	c5.694-2.448,11.125-3.674,16.267-3.674c10.158,0,17.82,3.046,22.963,9.137c5.142,6.092,7.717,15.137,7.717,27.133
	c0,2.327-0.124,7.483-0.366,15.472c-0.245,7.989-0.366,14.8-0.366,20.431c0,5.02,0.812,8.496,2.433,10.24s4.695,2.711,9.229,2.711
	h1.652L433.024,262.914z"/>
<path fill="#B3B3B3" d="M13.14,247.119c1.776-3.061,2.86-11.232,2.86-24.517v-4.132v-9.641v-18.64v-29.659
	c0-6.55-1.101-11.033-3.089-13.451c-1.99-2.419-5.64-3.628-10.841-3.628c-0.308,0-0.885,0.032-1.68,0.092
	c-0.128,0.01-0.271,0.018-0.39,0.026v108.104c0.623,0.025,1.538,0.038,2.574,0.038C7.776,251.711,11.363,250.182,13.14,247.119z"/>
<path fill="#B3B3B3" d="M492.154,186.654c-2.203-0.642-4.407-0.964-6.61-0.964c-6.673,0-11.782,2.373-15.335,7.116
	c-3.55,4.745-5.325,11.524-5.325,20.338c0,10.162,1.867,18.26,5.602,24.288c3.734,6.029,8.692,9.044,14.875,9.044
	c1.837,0,3.888-0.428,6.153-1.285c2.264-0.857,4.773-2.204,7.527-4.041c0.062-4.467,0.108-8.736,0.139-12.809
	c0.03-4.07,0.047-8.004,0.047-11.799c0-4.715-0.017-9.213-0.047-13.498c-0.03-4.284-0.076-8.754-0.139-13.406
	C496.655,188.293,494.358,187.297,492.154,186.654z"/>
<path fill="#B3B3B3" d="M74.465,187h1.102c3.549-2,6.29-5.093,8.218-8.368c1.929-3.273,2.892-6.654,2.892-10.268
	c0-6.12-1.989-10.849-5.969-14.247c-3.979-3.397-9.581-5.08-16.803-5.08c-0.979,0-3.368,0.191-6.733,0.559
	c-2.082,0.245-3.172,0.437-5.172,0.559v15.61v6.243c0,1.837,0.182,4.691,0.123,8.179c-0.062,3.49,0.121,5.812,0.121,7.812h5.877
	C61.486,188,66.936,187,74.465,187z"/>
<path fill="#B3B3B3" d="M52,224.715c0,1.776,0,2.879,0,3.305v15.978c3,0.796,4.943,1.378,7.422,1.745
	c2.478,0.367,5.263,0.551,8.141,0.551c7.346,0,13.275-1.942,17.683-5.83c4.408-3.889,6.638-9.045,6.638-15.473
	c0-6.918-2.419-12.336-7.286-16.253s-11.641-5.876-20.333-5.876c-2.327,0-5.935,0.092-10.831,0.275
	c-0.551,0.061-1.162,0.092-1.405,0.092C52.029,210.023,52,217.186,52,224.715z"/>
<path d="M214.969,387.473c-9.176,12.193-18.32,24.124-27.427,35.795c-9.11,11.668-18.24,23.728-27.395,36.18
	c-0.05,3.373-0.609,6.467-1.671,9.279c-1.065,2.811-2.529,5.271-4.393,7.374c-1.864,2.104-3.967,3.774-6.301,5.017
	c-2.34,1.234-4.749,1.963-7.228,2.177c-1.692,0.146-2.605-0.552-2.738-2.096c-0.078-0.9,0.062-1.561,0.425-1.98
	c0.362-0.419,0.743-0.938,1.145-1.555c0.399-0.62,0.753-1.46,1.061-2.522c0.306-1.064,0.365-2.688,0.176-4.873
	c-0.444-5.146-1.585-9.485-3.423-13.019c-1.84-3.534-4.155-6.314-6.942-8.341c-2.792-2.026-6.035-3.396-9.732-4.116
	c-3.701-0.716-7.58-0.9-11.64-0.551c-2.37,0.205-4.972,0.657-7.811,1.354c-2.838,0.7-5.787,1.443-8.843,2.223
	c-3.058,0.781-6.176,1.534-9.353,2.264c-3.177,0.727-6.286,1.223-9.333,1.485c-5.753,0.497-8.769-0.862-9.046-4.078
	c-0.122-1.413,0.365-2.686,1.46-3.818c1.097-1.131,2.942-1.807,5.537-2.031c2.706-0.233,5.739-0.365,9.086-0.396
	c3.352-0.027,6.651,0.009,9.897,0.116c3.249,0.108,6.35,0.168,9.307,0.169c2.955,0.006,5.334-0.07,7.141-0.227
	c3.384-0.291,6.714-2.197,9.991-5.722c3.276-3.521,6.418-7.905,9.434-13.155c3.013-5.245,5.891-11.066,8.637-17.459
	c2.744-6.389,5.192-12.595,7.345-18.611c2.149-6.015,4.008-11.486,5.573-16.417c1.561-4.926,2.752-8.595,3.567-10.998
	c-3.1-0.377-6.211-1.18-9.328-2.4c-3.118-1.22-5.935-2.919-8.452-5.102c-2.519-2.178-4.619-4.782-6.3-7.813
	c-1.685-3.029-2.689-6.473-3.022-10.332c-0.632-7.33,0.77-13.117,4.21-17.368c3.442-4.248,7.7-6.593,12.778-7.031
	c2.141-0.185,4.11-0.093,5.904,0.268c1.792,0.366,3.161,0.767,4.11,1.202l-0.342,1.972c-1.637-0.504-3.201-0.855-4.694-1.053
	c-1.495-0.191-3.088-0.219-4.779-0.072c-5.305,0.458-9.279,2.81-11.922,7.052c-2.646,4.247-3.725,9.198-3.237,14.856
	c0.3,3.473,1.255,6.631,2.864,9.472c1.609,2.842,3.608,5.262,5.996,7.256c2.389,1.999,5.057,3.615,8.005,4.847
	c2.946,1.239,5.854,1.993,8.718,2.262c2.414-7.595,5.848-14.887,10.302-21.88c4.453-6.99,9.604-13.17,15.449-18.532
	c5.846-5.362,12.199-9.766,19.062-13.209c6.863-3.441,13.904-5.476,21.125-6.098c3.271-0.282,6.463-0.171,9.577,0.339
	c3.112,0.508,5.984,1.525,8.616,3.046c2.63,1.523,4.797,3.57,6.498,6.144c1.697,2.576,2.721,5.856,3.065,9.844
	c0.388,4.503-0.333,8.677-2.158,12.527c-1.828,3.85-4.396,7.343-7.706,10.478c-3.31,3.137-7.16,5.933-11.551,8.383
	c-4.39,2.453-8.93,4.53-13.613,6.228c-4.684,1.7-9.367,3.076-14.05,4.128c-4.682,1.054-8.943,1.743-12.778,2.074
	c-1.58,0.137-3.219,0.215-4.923,0.23c-1.703,0.02-3.413-0.027-5.127-0.141c-3.274,9.483-6.461,17.662-9.561,24.535
	c-3.101,6.876-6.169,12.811-9.204,17.802c-3.038,4.993-6.107,9.241-9.215,12.747c-3.106,3.508-6.414,6.675-9.919,9.505
	c-3.507,2.829-7.198,5.479-11.077,7.952c-3.878,2.472-8.134,5.204-12.761,8.195l0.033,0.385c4.172-0.359,8.724-0.654,13.647-0.886
	c4.923-0.23,9.663,0.041,14.22,0.812c4.555,0.774,8.61,2.335,12.167,4.685c3.555,2.348,6.052,5.923,7.489,10.724
	c2.42-3.581,5.745-8.173,9.977-13.786c4.231-5.613,8.827-11.612,13.791-18.002c4.959-6.386,10.055-12.884,15.281-19.49
	c5.226-6.603,10.085-12.823,14.585-18.652L214.969,387.473z M226.853,311.816c-0.333-3.858-1.506-6.896-3.516-9.124
	c-2.011-2.222-4.596-3.197-7.753-2.924c-3.16,0.272-6.239,1.479-9.235,3.614c-2.999,2.139-5.86,4.877-8.583,8.222
	c-2.722,3.345-5.296,7.1-7.723,11.26c-2.426,4.164-4.647,8.369-6.667,12.625c-2.021,4.255-3.793,8.392-5.323,12.411
	c-1.528,4.019-2.73,7.556-3.601,10.611c1.262,0.153,2.572,0.168,3.925,0.051c1.354-0.116,2.932-0.252,4.738-0.409
	c9.587-0.826,17.312-3.177,23.174-7.053c5.859-3.874,10.343-8.21,13.453-13.018c3.106-4.801,5.132-9.673,6.069-14.613
	C226.75,318.53,227.097,314.646,226.853,311.816z"/>
<path d="M303.844,380.19c-0.41,0.556-1.066,1.486-1.977,2.795c-0.911,1.312-2.074,2.643-3.492,3.994
	c-1.416,1.355-3.043,2.594-4.877,3.726c-1.836,1.13-3.882,1.791-6.136,1.986c-2.936,0.253-5.628-0.321-8.077-1.733
	c-2.452-1.407-4.754-3.38-6.905-5.914l-0.337,0.03c0.577,6.688-0.256,13.174-2.497,19.456c-2.245,6.284-5.451,11.904-9.627,16.864
	c-4.175,4.959-9.083,9.014-14.72,12.154c-5.641,3.139-11.618,4.986-17.936,5.532c-3.724,0.321-7.374,0.181-10.948-0.418
	c-3.575-0.599-6.805-1.809-9.69-3.634c-2.884-1.822-5.291-4.335-7.214-7.539c-1.925-3.201-3.097-7.246-3.519-12.135
	c-0.633-7.331,0.319-14.084,2.854-20.264c2.536-6.179,6.02-11.565,10.454-16.158c4.434-4.592,9.574-8.243,15.421-10.953
	c5.846-2.705,11.703-4.313,17.571-4.82c4.848-0.418,8.921,0.01,12.213,1.279c3.291,1.27,6.135,2.939,8.53,4.998
	c2.394,2.062,4.469,4.375,6.224,6.944c1.756,2.569,3.494,4.916,5.212,7.031c1.715,2.121,3.572,3.871,5.565,5.255
	c1.995,1.382,4.401,1.951,7.225,1.708c2.591-0.224,5.197-1.323,7.812-3.296c2.613-1.978,5.074-4.745,7.381-8.314L303.844,380.19z
	 M245.1,365.242c-2.707,0.234-5.353,1.53-7.934,3.892c-2.582,2.36-5.021,5.359-7.322,8.989c-2.301,3.633-4.393,7.7-6.277,12.202
	c-1.886,4.505-3.484,9.016-4.798,13.532c-1.315,4.521-2.276,8.879-2.878,13.077c-0.605,4.2-0.774,7.84-0.508,10.925
	c0.256,2.961,1.053,5.288,2.393,6.985c1.342,1.702,3.082,2.455,5.226,2.271c2.708-0.234,5.351-1.53,7.933-3.892
	c2.58-2.359,5.021-5.356,7.322-8.989c2.3-3.63,4.393-7.697,6.278-12.202c1.882-4.503,3.483-9.014,4.799-13.531
	c1.315-4.519,2.271-8.909,2.869-13.175c0.597-4.259,0.77-7.869,0.514-10.828s-1.052-5.285-2.393-6.985
	C248.985,365.816,247.241,365.058,245.1,365.242z"/>
<path d="M282.541,413.901c-0.576-6.684,0.354-13.372,2.786-20.063c2.434-6.687,5.829-12.777,10.188-18.272
	c4.356-5.492,9.388-10.043,15.104-13.644c5.711-3.604,11.613-5.669,17.707-6.193c3.607-0.312,6.858,0.156,9.751,1.394
	c2.891,1.241,5.494,4.093,7.813,8.557l3.279-9.417l23.422-3.187c-4.879,11.955-9.749,23.678-14.611,35.173
	c-4.86,11.498-9.685,23.09-14.472,34.775c5.011-2.505,9.767-5.668,14.269-9.49c4.501-3.82,8.713-8.007,12.641-12.559
	c3.925-4.547,7.63-9.371,11.11-14.465c3.483-5.094,6.709-10.168,9.683-15.218l1.302,1.247c-2.962,5.181-6.318,10.458-10.055,15.833
	c-3.744,5.375-7.737,10.451-11.986,15.223c-4.249,4.772-8.733,9.11-13.452,13.016c-4.723,3.906-9.655,6.989-14.801,9.246
	c-3.435,10.271-7.746,19.582-12.933,27.937c-5.19,8.349-10.961,15.553-17.312,21.608c-6.357,6.054-13.131,10.85-20.328,14.387
	c-7.194,3.536-14.57,5.63-22.13,6.282c-4.625,0.398-9.238,0.279-13.84-0.36c-4.6-0.642-8.776-1.935-12.523-3.878
	c-3.749-1.943-6.875-4.587-9.379-7.935c-2.505-3.35-3.981-7.595-4.425-12.735c-0.289-3.347,0.035-6.515,0.969-9.512
	c0.936-2.993,2.552-5.693,4.843-8.094c2.293-2.402,5.362-4.382,9.205-5.945c3.844-1.562,8.53-2.58,14.056-3.058l10.83-0.935
	l0.2,2.313l-3.723,0.321c-5.414,0.468-9.601,2.641-12.563,6.527c-2.96,3.882-4.115,9.616-3.459,17.206
	c0.3,3.474,1.035,6.715,2.203,9.724c1.17,3.006,2.726,5.562,4.668,7.662c1.944,2.096,4.186,3.72,6.727,4.86
	c2.544,1.141,5.336,1.581,8.381,1.318c6.884-0.594,13.203-4.055,18.966-10.384c5.762-6.327,11.004-14.359,15.735-24.097
	l22.179-45.255l-0.372-0.355c-3.495,5.615-7.68,10.122-12.559,13.521c-4.88,3.401-10.022,5.338-15.438,5.805
	c-5.075,0.438-9.16-1.124-12.252-4.678C284.854,424.556,283.052,419.818,282.541,413.901z M304.789,414.898
	c0.212,2.443,0.769,4.631,1.675,6.562c0.905,1.931,2.655,2.783,5.249,2.56c2.37-0.205,4.771-1.352,7.205-3.441
	c2.434-2.088,4.76-4.751,6.982-7.987c2.22-3.234,4.291-6.883,6.218-10.935c1.92-4.054,3.526-8.177,4.812-12.368
	c1.283-4.192,2.274-8.228,2.96-12.111c0.689-3.879,0.906-7.299,0.65-10.258c-0.266-3.087-1.181-5.438-2.739-7.052
	c-1.562-1.615-3.469-2.325-5.724-2.131c-2.368,0.205-4.72,1.316-7.045,3.329c-2.327,2.016-4.55,4.571-6.668,7.671
	c-2.121,3.096-4.089,6.637-5.902,10.614c-1.819,3.981-3.341,8.062-4.569,12.249c-1.23,4.187-2.128,8.283-2.69,12.282
	C304.639,407.884,304.501,411.556,304.789,414.898z"/>
<path d="M481.521,364.858c-0.408,0.555-1.065,1.485-1.974,2.794c-0.909,1.312-2.076,2.643-3.494,3.994
	c-1.418,1.355-3.04,2.594-4.876,3.726c-1.837,1.13-3.884,1.792-6.137,1.986c-2.935,0.253-5.628-0.321-8.077-1.733
	c-2.45-1.407-4.754-3.38-6.905-5.912l-0.334,0.028c0.576,6.688-0.261,13.174-2.503,19.457c-2.241,6.283-5.45,11.904-9.624,16.863
	c-4.174,4.96-9.084,9.014-14.721,12.154c-5.641,3.14-11.619,4.987-17.935,5.532c-3.724,0.321-7.374,0.181-10.948-0.418
	c-3.574-0.598-6.806-1.808-9.69-3.634c-2.884-1.822-5.29-4.334-7.214-7.539c-1.925-3.2-3.098-7.246-3.52-12.134
	c-0.632-7.331,0.32-14.084,2.854-20.265c2.535-6.178,6.019-11.565,10.455-16.158c4.434-4.592,9.572-8.241,15.421-10.952
	c5.847-2.706,11.702-4.314,17.571-4.82c4.848-0.419,8.923,0.009,12.214,1.278c3.291,1.271,6.135,2.938,8.527,4.999
	c2.394,2.061,4.472,4.374,6.228,6.942c1.757,2.569,3.49,4.918,5.208,7.033c1.72,2.12,3.577,3.869,5.57,5.254
	c1.995,1.382,4.398,1.952,7.223,1.708c2.594-0.224,5.194-1.322,7.812-3.296c2.615-1.977,5.072-4.744,7.381-8.314L481.521,364.858z
	 M422.777,349.91c-2.706,0.233-5.354,1.529-7.933,3.892c-2.584,2.36-5.022,5.359-7.323,8.988c-2.301,3.633-4.393,7.7-6.276,12.203
	c-1.888,4.505-3.483,9.016-4.8,13.532c-1.315,4.52-2.274,8.879-2.876,13.076c-0.606,4.2-0.774,7.842-0.508,10.926
	c0.255,2.96,1.052,5.287,2.392,6.984c1.341,1.702,3.082,2.455,5.228,2.27c2.706-0.232,5.349-1.529,7.932-3.891
	c2.58-2.358,5.02-5.355,7.321-8.988c2.3-3.63,4.392-7.696,6.277-12.203c1.885-4.503,3.485-9.014,4.802-13.531
	c1.312-4.518,2.271-8.908,2.869-13.175c0.594-4.259,0.768-7.869,0.513-10.828c-0.256-2.959-1.052-5.285-2.393-6.985
	C426.662,350.483,424.918,349.726,422.777,349.91z"/>
</svg>
